<svg width="24" height="24" viewBox="0 0 24 24" fill="none" xmlns="http://www.w3.org/2000/svg">
<path fill-rule="evenodd" clip-rule="evenodd" d="M20.5302 11.47C20.6706 11.6106 20.7495 11.8012 20.7495 12C20.7495 12.1987 20.6706 12.3893 20.5302 12.53L14.5302 18.53C14.4615 18.6037 14.3787 18.6628 14.2867 18.7038C14.1947 18.7447 14.0954 18.7668 13.9947 18.7686C13.894 18.7703 13.794 18.7518 13.7006 18.7141C13.6072 18.6764 13.5224 18.6202 13.4511 18.549C13.3799 18.4778 13.3238 18.393 13.286 18.2996C13.2483 18.2062 13.2298 18.1062 13.2316 18.0054C13.2334 17.9047 13.2554 17.8054 13.2964 17.7134C13.3374 17.6214 13.3965 17.5386 13.4702 17.47L18.1902 12.75L4.00017 12.75C3.80126 12.75 3.61049 12.671 3.46984 12.5303C3.32919 12.3896 3.25017 12.1989 3.25017 12C3.25017 11.8011 3.32919 11.6103 3.46984 11.4696C3.61049 11.329 3.80126 11.25 4.00017 11.25L18.1902 11.25L13.4702 6.52997C13.3965 6.46131 13.3374 6.37851 13.2964 6.28651C13.2554 6.19451 13.2334 6.0952 13.2316 5.99449C13.2298 5.89379 13.2483 5.79376 13.286 5.70037C13.3238 5.60699 13.3799 5.52215 13.4511 5.45093C13.5224 5.37971 13.6072 5.32357 13.7006 5.28585C13.794 5.24813 13.894 5.2296 13.9947 5.23138C14.0954 5.23316 14.1947 5.2552 14.2867 5.29619C14.3787 5.33718 14.4615 5.39628 14.5302 5.46997L20.5302 11.47Z" fill="white"/>
</svg>
