<svg width="24" height="24" viewBox="0 0 24 24" fill="none" xmlns="http://www.w3.org/2000/svg">
<path d="M15.8028 15.804L21.1059 21.107M15.8028 15.804C15.1092 16.5127 14.2818 17.0757 13.3687 17.4625C12.4557 17.8493 11.4749 18.0511 10.4833 18.0564C9.49168 18.0617 8.50886 17.8703 7.5917 17.4932C6.67454 17.1162 5.84125 16.561 5.14006 15.8598C4.43887 15.1586 3.88369 14.3253 3.50664 13.4082C3.1296 12.491 2.93818 11.5082 2.94347 10.5166C2.94875 9.52495 3.15062 8.54422 3.53741 7.63113C3.9242 6.71804 4.48823 5.89071 5.19685 5.19703C6.60838 3.81525 8.50805 3.0461 10.4833 3.05663C12.4586 3.06715 14.3499 3.85648 15.7467 5.25322C17.1434 6.64996 17.9327 8.54132 17.9433 10.5166C17.9538 12.4918 17.1846 14.3925 15.8028 15.804Z" stroke="black" stroke-width="2" stroke-linecap="square"/>
</svg>
